<svg width="82" height="16" viewBox="0 0 82 16" fill="none" xmlns="http://www.w3.org/2000/svg">
<path d="M16.0214 8.04559L19.936 11.9602L16.0214 15.8748L12.1068 11.9602L16.0214 8.04559Z" fill="#BC4749"/>
<path d="M8.18842 8.04208L12.1013 11.9549L8.18842 15.8678L4.27557 11.9549L8.18842 8.04208Z" fill="#161616"/>
<rect x="12.1124" y="4.13455" width="5.541" height="5.541" transform="rotate(45 12.1124 4.13455)" fill="#BC4749"/>
<rect x="4.28326" y="4.13455" width="5.541" height="5.541" transform="rotate(45 4.28326 4.13455)" fill="#BC4749"/>
<path d="M16.0251 0.216675L19.9432 4.13476L16.0251 8.05284L12.1071 4.13476L16.0251 0.216675Z" fill="white"/>
<path d="M8.19598 0.216675L12.1141 4.13476L8.19598 8.05284L4.2779 4.13476L8.19598 0.216675Z" fill="#BC4749"/>
<rect x="19.9397" y="4.13126" width="5.541" height="5.541" transform="rotate(45 19.9397 4.13126)" fill="#BC4749"/>
<path d="M12.1124 4.13126L16.0305 8.04934L12.1124 11.9674L8.19435 8.04934L12.1124 4.13126Z" fill="#BC4749"/>
<path d="M27.8787 5.67248V4.22142H34.7154V5.67248H32.1669V12.5457H30.4273V5.67248H27.8787ZM37.7486 12.6677C37.1064 12.6677 36.5536 12.5376 36.0903 12.2775C35.6296 12.0146 35.2746 11.6434 35.0253 11.1638C34.776 10.6814 34.6514 10.111 34.6514 9.45255C34.6514 8.81035 34.776 8.24672 35.0253 7.76168C35.2746 7.27664 35.6255 6.89863 36.0781 6.62766C36.5333 6.35668 37.0671 6.2212 37.6795 6.2212C38.0914 6.2212 38.4748 6.28759 38.8298 6.42036C39.1875 6.55043 39.4991 6.74689 39.7647 7.00973C40.0329 7.27257 40.2416 7.60316 40.3906 8.00149C40.5396 8.39711 40.6142 8.86048 40.6142 9.39159V9.86714H35.3424V8.79409H38.9843C38.9843 8.54479 38.9301 8.32395 38.8217 8.13156C38.7133 7.93917 38.5629 7.78878 38.3705 7.68039C38.1808 7.56929 37.96 7.51374 37.708 7.51374C37.4451 7.51374 37.2121 7.57471 37.0089 7.69665C36.8083 7.81588 36.6512 7.97711 36.5374 8.18034C36.4236 8.38086 36.3653 8.60441 36.3626 8.85099V9.87121C36.3626 10.1801 36.4195 10.447 36.5333 10.6719C36.6498 10.8968 36.8138 11.0703 37.0251 11.1922C37.2365 11.3141 37.4871 11.3751 37.7771 11.3751C37.9695 11.3751 38.1456 11.348 38.3055 11.2938C38.4653 11.2396 38.6022 11.1583 38.716 11.0499C38.8298 10.9416 38.9165 10.8088 38.9761 10.6516L40.5776 10.7573C40.4963 11.1421 40.3296 11.4781 40.0776 11.7653C39.8283 12.0498 39.5059 12.272 39.1103 12.4319C38.7173 12.5891 38.2635 12.6677 37.7486 12.6677ZM46.9387 8.08278L45.3535 8.18034C45.3264 8.04485 45.2681 7.92291 45.1787 7.81452C45.0893 7.70342 44.9714 7.61536 44.8251 7.55032C44.6815 7.48258 44.5094 7.44871 44.3089 7.44871C44.0406 7.44871 43.8144 7.50561 43.6301 7.61942C43.4458 7.73052 43.3537 7.87955 43.3537 8.06653C43.3537 8.21556 43.4133 8.34156 43.5325 8.44453C43.6518 8.5475 43.8564 8.63015 44.1463 8.69247L45.2763 8.92009C45.8832 9.04474 46.3358 9.24526 46.6338 9.52165C46.9319 9.79805 47.0809 10.1612 47.0809 10.611C47.0809 11.0201 46.9604 11.3792 46.7192 11.6881C46.4807 11.997 46.1529 12.2382 45.7356 12.4116C45.321 12.5823 44.8427 12.6677 44.3007 12.6677C43.4743 12.6677 42.8158 12.4956 42.3254 12.1514C41.8376 11.8046 41.5517 11.3331 41.4677 10.737L43.1708 10.6475C43.2223 10.8996 43.3469 11.0919 43.5447 11.2247C43.7425 11.3548 43.9959 11.4198 44.3048 11.4198C44.6083 11.4198 44.8522 11.3616 45.0364 11.245C45.2234 11.1258 45.3183 10.9727 45.321 10.7857C45.3183 10.6286 45.2519 10.4999 45.1218 10.3996C44.9917 10.2966 44.7912 10.2181 44.5202 10.1639L43.4391 9.94844C42.8294 9.8265 42.3755 9.61514 42.0774 9.31436C41.7821 9.01358 41.6344 8.63015 41.6344 8.16408C41.6344 7.76304 41.7428 7.41755 41.9595 7.1276C42.179 6.83766 42.4866 6.61411 42.8822 6.45694C43.2805 6.29978 43.7466 6.2212 44.2804 6.2212C45.069 6.2212 45.6895 6.38785 46.142 6.72114C46.5972 7.05444 46.8628 7.50832 46.9387 8.08278ZM51.492 6.30249V7.60316H47.7323V6.30249H51.492ZM48.5859 4.80672H50.3174V10.6272C50.3174 10.7871 50.3418 10.9117 50.3905 11.0012C50.4393 11.0879 50.5071 11.1488 50.5938 11.1841C50.6832 11.2193 50.7862 11.2369 50.9027 11.2369C50.984 11.2369 51.0653 11.2301 51.1466 11.2166C51.2278 11.2003 51.2902 11.1881 51.3335 11.18L51.6059 12.4685C51.5191 12.4956 51.3972 12.5267 51.24 12.562C51.0829 12.5999 50.8918 12.6229 50.6669 12.6311C50.2496 12.6473 49.8838 12.5918 49.5695 12.4644C49.2579 12.3371 49.0153 12.1393 48.8419 11.871C48.6685 11.6027 48.5831 11.264 48.5859 10.8548V4.80672ZM54.9845 5.67248V4.22142H61.8212V5.67248H59.2727V12.5457H57.5331V5.67248H54.9845ZM63.8454 12.6636C63.447 12.6636 63.0921 12.5945 62.7805 12.4563C62.4688 12.3154 62.2222 12.1081 62.0407 11.8344C61.8619 11.558 61.7724 11.2139 61.7724 10.802C61.7724 10.4552 61.8361 10.1639 61.9635 9.92811C62.0908 9.69237 62.2642 9.50269 62.4837 9.35907C62.7032 9.21545 62.9525 9.10706 63.2316 9.0339C63.5134 8.96074 63.8088 8.90925 64.1177 8.87945C64.4808 8.84151 64.7735 8.80628 64.9957 8.77377C65.2179 8.73854 65.3791 8.68706 65.4793 8.61931C65.5796 8.55157 65.6297 8.45131 65.6297 8.31853V8.29414C65.6297 8.03672 65.5484 7.83755 65.3859 7.69665C65.226 7.55574 64.9984 7.48529 64.703 7.48529C64.3914 7.48529 64.1434 7.55439 63.9592 7.69258C63.7749 7.82807 63.653 7.99878 63.5934 8.20472L61.9919 8.07466C62.0732 7.69529 62.2331 7.36742 62.4715 7.09102C62.71 6.81192 63.0176 6.59785 63.3942 6.44882C63.7736 6.29707 64.2125 6.2212 64.7111 6.2212C65.058 6.2212 65.3899 6.26184 65.707 6.34314C66.0267 6.42443 66.3099 6.55043 66.5565 6.72114C66.8058 6.89186 67.0022 7.11135 67.1458 7.37961C67.2894 7.64516 67.3613 7.96356 67.3613 8.33479V12.5457H65.7192V11.68H65.6704C65.5701 11.8751 65.436 12.0471 65.268 12.1962C65.1 12.3425 64.8981 12.4576 64.6624 12.5417C64.4266 12.6229 64.1543 12.6636 63.8454 12.6636ZM64.3413 11.4686C64.596 11.4686 64.8209 11.4185 65.016 11.3182C65.2111 11.2152 65.3642 11.077 65.4753 10.9036C65.5864 10.7302 65.6419 10.5337 65.6419 10.3143V9.65172C65.5877 9.68695 65.5132 9.71946 65.4184 9.74927C65.3262 9.77637 65.2219 9.80211 65.1054 9.8265C64.9889 9.84818 64.8724 9.8685 64.7558 9.88747C64.6393 9.90373 64.5336 9.91863 64.4388 9.93218C64.2356 9.96198 64.0581 10.0094 63.9063 10.0744C63.7546 10.1395 63.6367 10.2275 63.5527 10.3386C63.4687 10.447 63.4267 10.5825 63.4267 10.7451C63.4267 10.9808 63.5121 11.161 63.6828 11.2857C63.8562 11.4076 64.0757 11.4686 64.3413 11.4686ZM73.8992 8.08278L72.314 8.18034C72.2869 8.04485 72.2286 7.92291 72.1392 7.81452C72.0498 7.70342 71.9319 7.61536 71.7856 7.55032C71.642 7.48258 71.4699 7.44871 71.2694 7.44871C71.0011 7.44871 70.7748 7.50561 70.5906 7.61942C70.4063 7.73052 70.3142 7.87955 70.3142 8.06653C70.3142 8.21556 70.3738 8.34156 70.493 8.44453C70.6123 8.5475 70.8168 8.63015 71.1068 8.69247L72.2367 8.92009C72.8437 9.04474 73.2962 9.24526 73.5943 9.52165C73.8924 9.79805 74.0414 10.1612 74.0414 10.611C74.0414 11.0201 73.9208 11.3792 73.6797 11.6881C73.4412 11.997 73.1133 12.2382 72.696 12.4116C72.2815 12.5823 71.8032 12.6677 71.2612 12.6677C70.4348 12.6677 69.7763 12.4956 69.2858 12.1514C68.7981 11.8046 68.5122 11.3331 68.4282 10.737L70.1313 10.6475C70.1828 10.8996 70.3074 11.0919 70.5052 11.2247C70.703 11.3548 70.9564 11.4198 71.2653 11.4198C71.5688 11.4198 71.8127 11.3616 71.9969 11.245C72.1839 11.1258 72.2787 10.9727 72.2815 10.7857C72.2787 10.6286 72.2124 10.4999 72.0823 10.3996C71.9522 10.2966 71.7517 10.2181 71.4807 10.1639L70.3995 9.94844C69.7899 9.8265 69.336 9.61514 69.0379 9.31436C68.7425 9.01358 68.5949 8.63015 68.5949 8.16408C68.5949 7.76304 68.7032 7.41755 68.92 7.1276C69.1395 6.83766 69.4471 6.61411 69.8427 6.45694C70.241 6.29978 70.7071 6.2212 71.2409 6.2212C72.0294 6.2212 72.65 6.38785 73.1025 6.72114C73.5577 7.05444 73.8233 7.50832 73.8992 8.08278ZM76.7007 10.7492L76.7048 8.67215H76.9568L78.9565 6.30249H80.9441L78.2574 9.44036H77.8469L76.7007 10.7492ZM75.1318 12.5457V4.22142H76.8633V12.5457H75.1318ZM79.0338 12.5457L77.1966 9.8265L78.3509 8.60305L81.062 12.5457H79.0338Z" fill="white"/>
<path d="M27.4723 8.79815H81.0986V9.57856H27.4723V8.79815Z" fill="white"/>
</svg>
